Coordinates
version=1
nRows=13
nColumns=36
inDegrees=yes

Units are S.I. units (second, meters, Newtons, ...)
If the header above contains a line with 'inDegrees', this indicates whether rotational values are in degrees (yes) or radians (no).

endheader
time	pelvis_tilt	pelvis_list	pelvis_rotation	pelvis_tx	pelvis_ty	pelvis_tz	hip_flexion_r	hip_adduction_r	hip_rotation_r	knee_angle_r	knee_angle_r_beta	ankle_angle_r	subtalar_angle_r	mtp_angle_r	hip_flexion_l	hip_adduction_l	hip_rotation_l	knee_angle_l	knee_angle_l_beta	ankle_angle_l	subtalar_angle_l	mtp_angle_l	lumbar_extension	lumbar_bending	lumbar_rotation	arm_flex_r	arm_add_r	arm_rot_r	elbow_flex_r	pro_sup_r	arm_flex_l	arm_add_l	arm_rot_l	elbow_flex_l	pro_sup_l
      0.99000000	     -9.20766405	      0.68426081	     -2.52614748	     -0.74031519	      1.31863751	     -0.56990155	     22.64534943	     -0.30180565	      2.56179174	     53.99531422	      0.94239601	    -25.22284041	    -15.98862215	     -4.45301829	     15.73682124	     -2.80552491	     -4.23148649	     45.66314552	      0.79697224	    -25.21142920	    -10.44970333	     -4.45301829	     -4.19518184	     -0.69451463	      0.16539545	     41.87030687	    -24.04353724	     14.90909308	     70.51575568	    110.97246038	     64.70872412	    -16.47885627	     15.33846020	     45.57521918	    111.04071755
      1.00000000	     -9.27393700	      0.75569296	     -2.24311320	     -0.73130174	      1.32279791	     -0.56959460	     23.99051332	     -0.49120284	      2.43688929	     53.52710305	      0.93422419	    -25.53863843	    -16.17634860	     -4.54414539	     17.34308604	     -2.95255405	     -4.07759552	     45.95140880	      0.80200338	    -25.45909293	    -11.51212536	     -4.54414539	     -4.57718452	     -0.85587842	      0.09718958	     41.66249728	    -24.33442743	     14.84291550	     69.37659592	    110.70716725	     64.94615047	    -16.80813047	     15.55066047	     45.04082547	    111.12032532
      1.01000000	     -9.31264644	      0.78758518	     -1.91205132	     -0.72238397	      1.32605325	     -0.56936048	     25.02309881	     -0.67543021	      2.33858515	     52.24220329	      0.91179846	    -25.55941074	    -16.33359640	     -4.61400489	     18.82851080	     -3.11519645	     -3.90252779	     45.72530782	      0.79805717	    -25.61639618	    -12.54036101	     -4.61400489	     -5.05444045	     -0.95940021	      0.01067395	     41.53166544	    -24.57003836	     14.68386320	     68.22268814	    110.50948626	     65.23916086	    -17.11912159	     15.85107854	     44.38696831	    111.12234534
      1.02000000	     -9.29305712	      0.90711790	     -1.64265207	     -0.71365404	      1.32860369	     -0.56919026	     25.79254246	     -0.94889395	      2.41647059	     50.27279636	      0.87742582	    -25.31798620	    -16.37774645	     -4.63025247	     20.13145327	     -3.15889600	     -3.76120021	     44.92308052	      0.78405567	    -25.40771285	    -12.91011956	     -4.63025247	     -5.72487080	     -1.13289607	      0.07368540	     41.36303795	    -24.97772020	     14.51422100	     67.42674023	    110.42853421	     65.45657552	    -17.36189966	     15.90719253	     44.12472238	    111.10871308
      1.03000000	     -9.05678655	      0.84925941	     -1.29355021	     -0.70517881	      1.33068838	     -0.56938386	     26.05386619	     -1.15117683	      2.29535497	     47.55195440	      0.82993817	    -25.40880124	    -16.19617112	     -4.67973937	     21.13013060	     -3.27746349	     -3.39144790	     43.60186913	      0.76099618	    -25.36404167	    -13.48400819	     -4.67973937	     -6.68503205	     -1.03725242	      0.04546138	     41.57628050	    -25.19653769	     14.20626797	     66.02579627	    110.25608434	     65.90806002	    -17.57963568	     16.31664571	     43.23642090	    111.07800158
      1.04000000	     -8.81464704	      0.95035308	     -1.00221269	     -0.69666451	      1.33192520	     -0.56976214	     26.15298322	     -1.56751633	      2.23370903	     44.44768192	      0.77575839	    -25.47894612	    -15.99021256	     -4.72856978	     21.92231372	     -3.16292681	     -3.02828929	     41.68415098	      0.72752568	    -25.06103102	    -13.53956152	     -4.72856978	     -7.72190833	     -1.07065687	      0.10958634	     41.72823045	    -25.61903752	     14.07197045	     65.06095931	    110.11302383	     66.25129801	    -17.83611296	     16.72165430	     42.74450931	    111.05881658
      1.05000000	     -8.46240483	      1.06702717	     -0.71990173	     -0.68795348	      1.33235297	     -0.57026971	     25.97079975	     -2.05056660	      2.11152176	     41.07539678	      0.71690092	    -25.70239980	    -15.73012527	     -4.77382430	     22.40529486	     -2.97664383	     -2.65759721	     39.32145949	      0.68628893	    -24.56832325	    -13.39908547	     -4.77382430	     -8.89474589	     -1.09293326	      0.20952741	     41.90830346	    -26.12574661	     13.96760008	     64.21208762	    109.99611017	     66.54411471	    -18.06556163	     17.11725036	     42.39153474	    111.03988370
      1.06000000	     -8.05961970	      1.17622178	     -0.49067405	     -0.67901468	      1.33181301	     -0.57079922	     25.67350001	     -2.53792331	      1.93075044	     37.66346655	      0.65735150	    -26.17702687	    -15.38736038	     -4.81296028	     22.68617218	     -2.78854413	     -2.38270977	     36.68269433	      0.64023379	    -24.02348611	    -13.25824458	     -4.81296028	    -10.10797225	     -1.08294248	      0.37413380	     42.11141198	    -26.72243497	     13.97219591	     63.48606932	    109.94604121	     66.76687373	    -18.33110764	     17.52173426	     42.16986572	    111.03275335
      1.07000000	     -7.53875964	      1.23557218	     -0.32804363	     -0.66969984	      1.33042936	     -0.57121506	     25.19074132	     -2.97412270	      1.57701814	     34.21949242	      0.59724281	    -27.11422745	    -14.97450309	     -4.86711148	     22.74482397	     -2.71835372	     -2.33200767	     33.92409260	      0.59208711	    -23.59313772	    -13.04732586	     -4.86711148	    -11.40166366	     -0.99189381	      0.55430080	     42.42173448	    -27.36189083	     14.26918867	     62.87916230	    109.84456642	     66.91828195	    -18.78724568	     18.09272283	     42.02683075	    110.93168126
      1.08000000	     -7.14184305	      1.27007231	     -0.19898225	     -0.66016127	      1.32784587	     -0.57165207	     24.84098006	     -3.36453819	      1.23001034	     30.87716110	      0.53890812	    -28.33257959	    -14.28901983	     -4.91088153	     22.89776547	     -2.68594930	     -2.33032486	     31.15378920	      0.54373620	    -23.43693959	    -12.74412246	     -4.91088153	    -12.49291229	     -0.86430779	      0.78824799	     42.72280547	    -28.07896286	     14.73674932	     62.38778009	    109.73025855	     66.96665990	    -19.26791731	     18.61236265	     41.97961945	    110.88128510
      1.09000000	     -6.69170047	      1.25513294	     -0.10219860	     -0.65030362	      1.32428591	     -0.57199840	     24.40361238	     -3.68580087	      0.83441857	     27.63703553	      0.48235727	    -29.79435840	    -13.68124398	     -4.97395955	     22.95091094	     -2.74698881	     -2.52353403	     28.41460680	      0.49592844	    -23.69991337	    -12.46597327	     -4.97395955	    -13.53776451	     -0.70929443	      1.01185411	     43.15609743	    -28.84988794	     15.56012534	     61.85986357	    109.54088486	     67.01865802	    -19.83365952	     19.34721658	     41.81248494	    110.90222349
      1.10000000	     -6.34823644	      1.22376865	     -0.01661603	     -0.64025329	      1.31943380	     -0.57220498	     24.12029380	     -3.98484579	      0.37484908	     24.63471397	      0.42995687	    -31.17445274	    -12.72159592	     -5.03003612	     23.09760967	     -2.84112505	     -2.81347917	     25.76196799	      0.44963116	    -24.38732811	    -12.27204689	     -5.03003612	    -14.34720230	     -0.62247231	      1.27338800	     43.44963542	    -29.65774954	     16.28151870	     61.37383237	    109.33533091	     67.10219773	    -20.38031720	     20.09657054	     41.63278965	    110.95979675
      1.11000000	     -6.13342306	      1.23746162	      0.02264013	     -0.63000815	      1.31331035	     -0.57234193	     23.98480710	     -4.29861516	     -0.16420716	     21.78827412	      0.38027712	    -32.37418005	    -11.70105324	     -5.07265515	     23.36192321	     -2.90199550	     -3.19832226	     23.22568963	      0.40536476	    -25.38223030	    -12.05364923	     -5.07265515	    -14.89817251	     -0.54207825	      1.57151429	     43.79766710	    -30.48290613	     16.89225662	     61.05477883	    109.15396824	     67.00470134	    -21.01971296	     20.92078966	     41.52833025	    111.03345619
